<svg xmlns="http://www.w3.org/2000/svg" xmlns:xlink="http://www.w3.org/1999/xlink" width="584.663" height="328.6" viewBox="0 0 584.663 328.6"><defs><style>.a,.b,.m,.n{fill:none;}.b{stroke:#003db5;stroke-miterlimit:10;stroke-width:0.901px;}.c,.d{fill:#003db5;}.d{opacity:0.22;}.e{fill:#cfe0ff;}.f{fill:#0d2a6e;}.g{fill:#a8c6ff;}.h{fill:#ff1967;}.i,.o{fill:#fff;}.i,.m{stroke:#fff;}.i{stroke-width:3.59px;opacity:0.24;mix-blend-mode:overlay;isolation:isolate;}.j{fill:#5dccfe;}.k{fill:#ffb139;}.l{fill:#216bfe;}.m,.n{stroke-linecap:round;stroke-linejoin:round;}.m{stroke-width:0.964px;}.n{stroke:#ccc8c8;stroke-width:1.595px;}.p{fill:#004d8c;}.q{clip-path:url(#a);}.r{fill:#1b294b;}.s{fill:#2a3967;}.t{fill:#a8ccff;}.u{fill:#fddbba;}.v{fill:#ff912b;}.w{fill:#b53c37;}.x{fill:#fb7c1d;}.y{fill:#f27e1c;}.z{fill:#831919;}</style><clipPath id="a"><path class="a" d="M1139.927,158.783s22.819,98.173-45.477,180.7l-256.7,3.546a24.378,24.378,0,0,1-24.99-24.371v-135.5a24.38,24.38,0,0,1,24.38-24.38Z" transform="translate(-812.766 -158.783)"/></clipPath></defs><g transform="translate(-151 -282.057)"><g transform="translate(299.128 283)"><ellipse class="b" cx="148.781" cy="76.855" rx="148.781" ry="76.855" transform="matrix(0.237, -0.972, 0.972, 0.237, 0, 289.105)"/><path class="c" d="M1089.7,99.242" transform="translate(-941.813 -81.473)"/><path class="d" d="M1091.523,255.7c20.108-65.726,8.886-127.428-25.066-137.816l-.057-.017a1.267,1.267,0,0,1,.149-2.47,35.593,35.593,0,0,1,15.81,1.065c33.952,10.387,45.174,72.089,25.065,137.815a220.42,220.42,0,0,1-25.545,55.644c-4.542,6.959-15.014.385-10.834-6.8A226.4,226.4,0,0,0,1091.523,255.7Z" transform="translate(-943.481 -80.39)"/><path class="e" d="M1022.156,388.82c41.24,10.047,90.438-46.527,109.888-126.361s1.785-152.7-39.454-162.744a41.068,41.068,0,0,0-11.574-1.111h0s71.32-4.709,92.493,54.838c0,0,36.247,92.111-33.76,195.576,0,0-34.319,51.954-74.631,51.577,0,0-33.08.227-57.75-18.715A41.932,41.932,0,0,0,1022.156,388.82Z" transform="translate(-947.486 -81.523)"/><ellipse class="f" cx="22.021" cy="12.255" rx="22.021" ry="12.255" transform="translate(186.51 207.672) rotate(-71.662)"/><path class="g" d="M1140.691,255.911a13.649,13.649,0,0,1,16.288-8.95l.149.04,128.291,35.332c.2.056.4.115.6.18a2.047,2.047,0,0,1,1.348,2.526l-9.057,30.616a2.014,2.014,0,0,1-2.433,1.4l-.019-.005-128.292-35.33-.17-.048a14.135,14.135,0,0,1-9.28-18.179Z" transform="translate(-938.529 -71.326)"/><ellipse class="h" cx="18.437" cy="10.261" rx="18.437" ry="10.261" transform="translate(329.753 243.724) rotate(-71.662)"/><path class="i" d="M148.22,0c81.86,0,148.22,34.28,148.22,76.566s-66.361,76.566-148.22,76.566S0,118.851,0,76.566,66.361,0,148.22,0Z" transform="matrix(0.237, -0.972, 0.972, 0.237, 0.562, 289.242)"/></g><rect class="j" width="53.66" height="11.987" rx="5.251" transform="translate(637.863 422.523) rotate(180)"/><rect class="k" width="53.66" height="11.987" rx="5.251" transform="translate(603.896 377.459) rotate(180)"/><rect class="h" width="171.095" height="11.987" rx="5.251" transform="translate(735.663 443.384) rotate(180)"/><rect class="l" width="125.509" height="11.987" rx="4.497" transform="translate(669.809 402.988) rotate(180)"/><line class="m" x1="51.797" transform="translate(609.901 396.994)"/><line class="m" x1="40.89" transform="translate(555.852 396.994)"/><line class="m" x1="40.89" transform="translate(556.621 371.465)"/><line class="m" x1="40.89" transform="translate(689.173 437.39)"/><line class="m" x1="40.89" transform="translate(590.588 416.529)"/><line class="m" x1="29.554" transform="translate(652.227 437.39)"/><line class="m" x1="48.034" transform="translate(570.68 437.39)"/><line class="m" x1="19.475" transform="translate(628.148 437.39)"/><rect class="h" width="158.449" height="20.074" rx="4.97" transform="translate(315.082 381.012) rotate(180)"/><g transform="translate(156.22 291.74)"><line class="n" x1="85.753" transform="translate(0.414 0)"/><line class="n" x1="85.753" transform="translate(0.414 11.719)"/><line class="n" x1="85.753" transform="translate(0.414 23.437)"/><line class="n" x1="85.753" transform="translate(0.414 35.156)"/><line class="n" x1="85.754" transform="translate(0 46.875)"/></g><g transform="translate(254.191 283.159)"><rect class="o" width="61.213" height="61.213" rx="11.552" transform="translate(61.213 61.213) rotate(180)"/><path class="p" d="M946.18,105.69a9.655,9.655,0,0,0-7.276-2.821V94.762a17.79,17.79,0,1,1,0,35.569v-8.105a9.688,9.688,0,0,0,7.276-16.536Z" transform="translate(-907.266 -81.941)"/><path class="k" d="M930.765,110.978a9.663,9.663,0,0,0,9.259,10.13v8.106a17.777,17.777,0,0,1-17.365-18.236Z" transform="translate(-908.386 -80.823)"/><path class="h" d="M927.859,99.964a17.731,17.731,0,0,1,12.164-5.2v8.107a9.656,9.656,0,0,0-9.259,9.227h-8.107A17.73,17.73,0,0,1,927.859,99.964Z" transform="translate(-908.385 -81.941)"/></g><g transform="translate(151 364.412)"><g class="q" transform="translate(0 0)"><g transform="translate(0 12.926)"><path class="r" d="M849.633,307.923h323.153l109.137-9.832s-19.529-48.658-24.853-49.389-397.2,0-397.2,0Z" transform="translate(-810.226 -165.535)"/><path class="k" d="M1335.367,264.778c-1.14,3.956-3.274,4.814-3.27,13.341,0,3.35.748,7.575-.934,11.291-.733,1.612-5.261,4.3-4,9.68,0,0-7.469,5.787-7.786,6.522a43.009,43.009,0,0,0-.841,4.84c-8.042,3.291-44.1,2.042-44.1,2.042s1.094-59.575-48.978-52.632-41.323,56.393-41.323,56.393L943.4,320.548s3.91-62.8-49.239-56.2c-44.16,5.488-32.818,55.965-32.818,55.965-44.025,2.277-48.574-12.672-48.574-12.672v-6.17h2.761V285.223h-2.761v-12.1l9.263-21.2c3.9-6.7,14.469-12.183,28.134-16.636,40.982-13.367,109.786-17.478,109.786-17.478,18.581-10.682,33.984-18.618,46.032-24.385,19.221-9.195,41.13-18.163,62.336-20.259,57.416-5.673,104.632.758,116.2,2.635,13.522,2.192,81.506,31.795,86.623,34.353s46.853,6.031,52.215,6.679,5.2,6.01,5.2,6.01l.736,4.76-.867,2.786-4-1.393,1.688,6.022-.526,2.525,5.379.854,1.132,7.319.685,4.419C1336.679,252.085,1335.956,262.737,1335.367,264.778Z" transform="translate(-812.766 -170.875)"/><g transform="translate(45.275 89.323)"><circle class="s" cx="37.07" cy="37.07" r="37.07" transform="translate(0 72.886) rotate(-79.445)"/><g transform="translate(14.242 14.242)"><path class="t" d="M897.439,325.748a28.991,28.991,0,1,1,28.991-28.992A29.024,29.024,0,0,1,897.439,325.748Zm0-55.3a26.311,26.311,0,1,0,26.31,26.31A26.34,26.34,0,0,0,897.439,270.446Z" transform="translate(-868.447 -267.765)"/></g><g transform="translate(16.489 15.406)"><g transform="translate(20.83)"><path class="t" d="M900.9,324.361H890.513l3.334-28.468-3.81-27.039,11.871.733-3.957,26.306Z" transform="translate(-890.037 -268.854)"/></g><g transform="translate(0 8.739)"><path class="t" d="M875.742,314.186l-5.192-9,26.322-11.344,21.513-16.817,5.3,10.647L898.923,297.4Z" transform="translate(-870.549 -277.029)"/></g><g transform="translate(1.028 8.421)"><path class="t" d="M871.511,285.411l5.707-8.679,21.955,18.426,24.686,11.671-7.134,9.516-19.806-17.759Z" transform="translate(-871.511 -276.732)"/></g><path class="t" d="M886.468,295.462a9.672,9.672,0,1,1,9.671,9.673A9.672,9.672,0,0,1,886.468,295.462Z" transform="translate(-869.452 -267.687)"/></g></g><g transform="translate(370.994 86.335)"><circle class="s" cx="37.07" cy="37.07" r="37.07" transform="matrix(0.29, -0.957, 0.957, 0.29, 0, 70.96)"/><g transform="translate(17.231 17.231)"><path class="t" d="M1204.957,325.748a28.991,28.991,0,1,1,28.991-28.992A29.024,29.024,0,0,1,1204.957,325.748Zm0-55.3a26.311,26.311,0,1,0,26.31,26.31A26.34,26.34,0,0,0,1204.957,270.446Z" transform="translate(-1175.965 -267.765)"/></g><g transform="translate(19.478 18.395)"><g transform="translate(20.83)"><path class="t" d="M1208.418,324.361h-10.387l3.334-28.468-3.81-27.039,11.871.733-3.957,26.306Z" transform="translate(-1197.554 -268.854)"/></g><g transform="translate(0 8.739)"><path class="t" d="M1183.259,314.186l-5.193-9,26.322-11.344,21.513-16.817,5.3,10.647-24.761,9.724Z" transform="translate(-1178.067 -277.029)"/></g><g transform="translate(1.028 8.421)"><path class="t" d="M1179.029,285.411l5.707-8.679,21.955,18.426,24.686,11.671-7.134,9.516-19.807-17.759Z" transform="translate(-1179.029 -276.732)"/></g><path class="t" d="M1193.985,295.462a9.673,9.673,0,1,1,9.673,9.673A9.673,9.673,0,0,1,1193.985,295.462Z" transform="translate(-1176.97 -267.687)"/></g></g><path class="u" d="M863.5,246.583h-24.25a22.153,22.153,0,0,0-19.338,11.344l-.832,1.489a2.254,2.254,0,0,0,1.968,3.353h29.185a7.213,7.213,0,0,0,5.3-2.323l9.518-10.315A2.115,2.115,0,0,0,863.5,246.583Z" transform="translate(-812.351 -165.659)"/><path class="r" d="M834.048,294.887h-8.277a7.56,7.56,0,0,0-6.6,3.873l-.284.508a.77.77,0,0,0,.672,1.145h9.96a2.462,2.462,0,0,0,1.811-.793l3.248-3.521A.722.722,0,0,0,834.048,294.887Z" transform="translate(-812.351 -162.331)"/><path class="t" d="M1216.327,213.683l-123.746,2.938a4.318,4.318,0,0,1-4.423-4.318v-28.51a4.021,4.021,0,0,1,4.08-4.021c52.769.733,70.853,2.2,81.7,5.946,9.565,3.3,31.934,16.869,43.5,23.756A2.264,2.264,0,0,1,1216.327,213.683Z" transform="translate(-793.791 -170.262)"/><path class="t" d="M1085.5,179.6q3.013.032,5.9.071v37.186L972.016,219.69a1.558,1.558,0,0,1-.909-2.849C985.055,207.44,1031.776,178.99,1085.5,179.6Z" transform="translate(-801.903 -170.275)"/><path class="t" d="M1207.675,211.839l-.066,0v-5.168c.421.253.834.5,1.23.733A2.385,2.385,0,0,1,1207.675,211.839Z" transform="translate(-785.56 -168.409)"/><path class="k" d="M1089.1,218.495l-14.621-1.159.975-39.768H1089.1Z" transform="translate(-794.733 -170.414)"/><path class="v" d="M1175.23,218.159h-6.823V182.447l6.823,4.094Z" transform="translate(-788.261 -170.078)"/><path class="s" d="M986.977,205.412l3.64,12.058-19.914.472a1.181,1.181,0,0,1-.719-2.14C974.48,212.568,982.811,206.807,986.977,205.412Z" transform="translate(-801.967 -168.496)"/><g transform="translate(165.996 8.395)"><path class="r" d="M969.937,220.775a1.873,1.873,0,0,1-1.072-3.41l.415-.286c.43-.3.914-.629,1.444-.987q.656-.441,1.4-.935l.755-.5q.856-.561,1.818-1.174l1.422-.9.08-.049c.069-.044.14-.088.212-.13.413-.259.849-.53,1.3-.8l.1-.061q.221-.138.449-.275c.221-.137.455-.279.692-.422.328-.2.662-.4,1-.6.956-.574,1.985-1.181,3.056-1.8q.5-.289,1.009-.581,1.013-.584,2.083-1.18h0l.5-.281c1.438-.8,2.9-1.592,4.331-2.356l.473-.249c.218-.114.438-.23.658-.347,2.737-1.434,5.55-2.84,8.364-4.184l.874-.414q1.316-.624,2.673-1.243c.3-.138.605-.276.914-.415.6-.274,1.217-.548,1.84-.823l.933-.41c.93-.409,1.921-.836,3.027-1.3q.861-.361,1.728-.719c3.9-1.609,7.879-3.12,11.822-4.494l.864-.3q.487-.168.977-.332l1.23-.413c.331-.111.665-.219,1-.328l.039-.013q.52-.172,1.046-.339c.634-.2,1.271-.405,1.912-.6.435-.136.876-.27,1.32-.405q1.015-.306,2.036-.607l1.132-.326q1.071-.306,2.15-.6c1.424-.391,2.876-.773,4.314-1.131l.085-.021c.128-.033.254-.065.383-.1.61-.152,1.237-.3,1.865-.451.37-.09.747-.178,1.127-.265l.284-.065c.281-.064.563-.129.845-.191.374-.086.753-.168,1.131-.251s.76-.165,1.139-.246.765-.159,1.148-.237.763-.156,1.15-.233l.062-.012c.363-.073.728-.144,1.091-.214s.725-.139,1.09-.207c.41-.077.82-.15,1.231-.223.262-.048.527-.094.792-.14l.373-.065c.778-.133,1.555-.263,2.334-.385.388-.063.781-.124,1.176-.184l.06-.01q1.036-.156,2.072-.3c1.289-.178,2.585-.343,3.852-.49l.083-.011c.356-.041.711-.081,1.067-.118.248-.029.51-.057.77-.081s.53-.059.807-.083.6-.061.9-.088c.4-.04.8-.076,1.213-.111.386-.033.777-.065,1.168-.1.311-.025.608-.049.908-.071l1.733-.118c.341-.022.682-.042,1.026-.062l.151-.007c.374-.021.758-.041,1.141-.059.3-.014.608-.029.916-.041l.029,0c.275-.012.548-.024.823-.033l.678-.025.81-.024a3.885,3.885,0,0,1,3.991,3.881v30.816a4.786,4.786,0,0,1-4.644,4.756l-109.134,2.59Zm18.023-12.9-.674.376q-1.182.657-2.3,1.3c-.342.2-.675.387-1,.578-1.063.615-2.082,1.214-3.03,1.786-.341.2-.67.4-1,.6-.232.14-.461.279-.687.419-.154.093-.3.181-.438.268l-.1.063c-.447.274-.878.542-1.3.8l-.277.172c-.483.3-.956.6-1.41.894q-.951.606-1.795,1.158l-.75.493q-.741.491-1.388.926c-.521.353-1,.677-1.426.974l-.2.137,20.5-.485,88.38-2.1a2.823,2.823,0,0,0,2.741-2.806V182.612a1.935,1.935,0,0,0-1.989-1.933l-.8.024-.679.025c-.267.01-.534.02-.8.032l-.031,0c-.3.012-.607.027-.906.041-.376.017-.752.036-1.125.058l-.152.009c-.332.018-.668.037-1,.06l-1.719.117c-.293.021-.585.045-.879.068-.405.031-.788.062-1.169.1-.4.034-.8.069-1.2.108-.3.028-.6.057-.89.088-.274.025-.532.05-.789.081s-.518.052-.766.081c-.36.036-.708.077-1.056.117l-.082.01c-1.252.145-2.533.309-3.809.485q-1.026.141-2.046.3l-.056.009q-.585.09-1.166.183c-.775.122-1.542.25-2.309.381l-.371.065c-.26.045-.521.091-.78.138-.411.073-.816.145-1.221.221-.359.067-.717.136-1.078.205s-.723.14-1.083.212l-.062.013c-.378.074-.755.149-1.13.228s-.763.157-1.141.237-.75.159-1.127.242-.748.165-1.125.25c-.281.062-.557.125-.833.189l-.288.066c-.372.084-.741.171-1.109.26-.626.146-1.243.3-1.856.449-.128.031-.245.061-.362.091l-.092.024c-1.425.356-2.862.732-4.275,1.12-.715.195-1.423.393-2.128.594l-1.125.325c-.67.2-1.344.4-2.014.6q-.654.2-1.306.4c-.638.2-1.269.4-1.9.6q-.516.164-1.028.333l-.043.014c-.329.107-.657.215-.987.324l-1.223.41c-.322.108-.643.217-.962.327l-.859.3c-3.91,1.362-7.852,2.86-11.72,4.455q-.863.358-1.718.714c-1.095.462-2.076.883-3,1.29l-.931.409q-.924.406-1.823.816c-.307.138-.6.273-.9.409-.9.413-1.785.822-2.656,1.235l-.872.413c-2.788,1.331-5.579,2.726-8.289,4.146l-.66.348-.467.247C990.559,206.45,989.253,207.159,987.96,207.875Z" transform="translate(-968.062 -178.729)"/></g><g transform="translate(386.105 17.775)"><path class="r" d="M1176.885,214.962a2.8,2.8,0,0,1-1.959-.81,3.2,3.2,0,0,1-.944-2.284V191.059c0-1.183.175-2.695,1.134-3.292.867-.541,2.327-.146,3.242.3,1.019.5,1.729.858,2.112,1.066.041.02.1.051.153.082l.415.226c5.185,2.833,12.568,7.291,21.943,13.252q.6.378,1.191.757,1.419.9,2.75,1.762l3.288,2.122q.858.555,1.643,1.069c.072.045.153.1.233.15l.073.047a3.018,3.018,0,0,1,1.209,3.384,2.769,2.769,0,0,1-2.593,2.1l-.358.009-33.459.869Zm.183-25.471a1.218,1.218,0,0,0-.642.19,1.592,1.592,0,0,0-.717,1.378v20.808a1.46,1.46,0,0,0,.423,1.048,1.092,1.092,0,0,0,.781.321l33.817-.879a1.079,1.079,0,0,0,.977-.843,1.3,1.3,0,0,0-.489-1.467l-.072-.046c-.075-.049-.151-.1-.227-.146-.531-.346-1.077-.7-1.648-1.072l-3.282-2.117c-.884-.569-1.8-1.158-2.746-1.758q-.587-.375-1.185-.755c-9.347-5.942-16.7-10.38-21.847-13.195l-.419-.229c-.043-.024-.084-.046-.127-.067-.373-.2-1.083-.56-2.066-1.043A1.194,1.194,0,0,0,1177.068,189.491Z" transform="translate(-1173.982 -187.505)"/></g><path class="s" d="M986.977,205.412l3.64,12.058-19.914.472a1.181,1.181,0,0,1-.719-2.14C974.48,212.568,982.811,206.807,986.977,205.412Z" transform="translate(-801.967 -168.496)"/><g transform="translate(293.393 8.535)"><path class="r" d="M1092.533,217.659a5.291,5.291,0,0,1-5.287-5.292V183.855a5,5,0,0,1,5.068-4.995c54.466.758,71.332,1.993,82.029,6.009l.632.237v30.6l-82.308,1.952Zm-.291-36.849a3.045,3.045,0,0,0-3.047,3.045v28.512a3.342,3.342,0,0,0,3.424,3.341l80.405-1.907V186.463c-10.408-3.694-28.259-4.923-80.739-5.653Z" transform="translate(-1087.246 -178.86)"/></g><path class="w" d="M1301.285,242.057h-23.3a11.3,11.3,0,0,1-8.884-4.313l-8.813-11.2a1.607,1.607,0,0,1,1.268-2.6h36.924l-.867,2.786-4-1.393,1.688,6.022-.526,2.525,5.379.854Z" transform="translate(-781.954 -167.219)"/><g transform="translate(287.044 9.022)"><rect class="r" width="124.859" height="0.975" transform="translate(0 124.85) rotate(-89.316)"/></g><g transform="translate(130.15 132.06)"><rect class="r" width="240.904" height="0.975" transform="translate(0 4.772) rotate(-1.135)"/></g><path class="x" d="M1070.955,238.806c0,1.321-5.892,2.391-13.158,2.391s-13.158-1.07-13.158-2.391,5.891-2.39,13.158-2.39S1070.955,237.486,1070.955,238.806Z" transform="translate(-796.789 -166.359)"/><path class="x" d="M1185.6,238.806c0,1.321-5.891,2.391-13.158,2.391s-13.158-1.07-13.158-2.391,5.892-2.39,13.158-2.39S1185.6,237.486,1185.6,238.806Z" transform="translate(-788.889 -166.359)"/><g transform="translate(360.649 43.421)"><path class="r" d="M1151.141,300.66l-.974-.052c.673-12.412,4.352-22.873,10.934-31.092a51.635,51.635,0,0,1,21.165-15.325,80.15,80.15,0,0,1,29.3-5.567V211.5h.975v38.132l-.508-.021a78.776,78.776,0,0,0-29.428,5.5,50.669,50.669,0,0,0-20.756,15.034C1155.406,278.193,1151.8,288.462,1151.141,300.66Z" transform="translate(-1150.167 -211.497)"/></g><g transform="translate(159.466 48.424)"><path class="r" d="M962,304.479c-.378-32.2,1.415-54.484,2.985-67.5,1.7-14.129,3.527-20.731,3.545-20.8l.939.263c-.073.258-7.217,26.549-6.495,88.026Z" transform="translate(-961.952 -216.178)"/></g><g transform="translate(279.382 9.022)"><rect class="r" width="19.066" height="0.975"/></g><path class="y" d="M1295.375,291.449a37.621,37.621,0,0,0-5.963-2.033c-2.243-.421-15.29,1.262-15.29,1.262a75.842,75.842,0,0,1,8.557-5.051c2.946-1.262,16.7-3.859,16.7-3.859C1298.641,283.381,1294.113,286.066,1295.375,291.449Z" transform="translate(-780.977 -163.234)"/><path class="y" d="M1299.82,267.324l-11.667-4.84-6.944-9.28,15.571,5.7,6.308.2Z" transform="translate(-780.489 -165.203)"/><path class="y" d="M1289.7,273.143s-11.152-1.262-13.678,0-8.838,7.786-8,9.259,11.994-4.98,16.2-4.909,16.662-2.035,16.662-2.035Z" transform="translate(-781.402 -163.867)"/><path class="z" d="M1299.778,242.057h-12.718l-.526-1.86,4.735-2.946-7.575-2.1-1.894-3.472,6.628-3.261-2.42-4.469h10.967l-.867,2.786-4-1.393,1.688,6.022-.526,2.525,5.378.854Z" transform="translate(-780.448 -167.219)"/><rect class="x" width="30.932" height="16.224" rx="7.589" transform="translate(182.156 40.374)"/></g></g></g></g></svg>